<svg width="19" height="25" viewBox="0 0 19 25" fill="none" xmlns="http://www.w3.org/2000/svg">
<path d="M12.5 7.03125V1.5625C12.5 0.699561 13.1996 0 14.0625 0C14.9254 0 15.625 0.699561 15.625 1.5625V7.03125H12.5ZM17.9688 7.8125H0.78125C0.349756 7.8125 0 8.16226 0 8.59375V10.1562C0 10.5877 0.349756 10.9375 0.78125 10.9375H1.5625V12.5C1.5625 16.2796 4.24653 19.4322 7.8125 20.1561V25H10.9375V20.1561C14.5035 19.4322 17.1875 16.2796 17.1875 12.5V10.9375H17.9688C18.4002 10.9375 18.75 10.5877 18.75 10.1562V8.59375C18.75 8.16226 18.4002 7.8125 17.9688 7.8125ZM6.25 7.03125V1.5625C6.25 0.699561 5.55044 0 4.6875 0C3.82456 0 3.125 0.699561 3.125 1.5625V7.03125H6.25Z" fill="white"/>
</svg>
