<svg width="26" height="18" viewBox="0 0 26 18" fill="none" xmlns="http://www.w3.org/2000/svg">
<path d="M24.7978 12.1216C24.8994 11.5708 24.8994 11.0083 24.7978 10.4575L25.8056 9.87549C25.9228 9.80908 25.9736 9.67236 25.9345 9.54346C25.6728 8.69971 25.2236 7.93408 24.6376 7.30127C24.5478 7.20361 24.4033 7.18018 24.2861 7.24658L23.2783 7.82861C22.8525 7.46533 22.3642 7.18408 21.8369 6.99658V5.83252C21.8369 5.69971 21.7431 5.58252 21.6142 5.55518C20.7431 5.35986 19.8564 5.36768 19.0283 5.55518C18.8994 5.58252 18.8056 5.69971 18.8056 5.83252V6.99658C18.2783 7.18408 17.79 7.46533 17.3642 7.82861L16.3564 7.24658C16.2431 7.18018 16.0947 7.20361 16.0048 7.30127C15.4189 7.93408 14.9697 8.69971 14.708 9.54346C14.6689 9.67236 14.7236 9.80908 14.8369 9.87549L15.8447 10.4575C15.7431 11.0083 15.7431 11.5708 15.8447 12.1216L14.8369 12.7036C14.7197 12.77 14.6689 12.9067 14.708 13.0356C14.9697 13.8794 15.4189 14.6411 16.0048 15.2778C16.0947 15.3755 16.2392 15.3989 16.3564 15.3325L17.3642 14.7505C17.79 15.1138 18.2783 15.395 18.8056 15.5825V16.7466C18.8056 16.8794 18.8994 16.9966 19.0283 17.0239C19.8994 17.2192 20.7861 17.2114 21.6142 17.0239C21.7431 16.9966 21.8369 16.8794 21.8369 16.7466V15.5825C22.3642 15.395 22.8525 15.1138 23.2783 14.7505L24.2861 15.3325C24.3994 15.3989 24.5478 15.3755 24.6376 15.2778C25.2236 14.645 25.6728 13.8794 25.9345 13.0356C25.9736 12.9067 25.9189 12.77 25.8056 12.7036L24.7978 12.1216ZM20.3251 13.1841C19.2783 13.1841 18.4306 12.3325 18.4306 11.2896C18.4306 10.2466 19.2822 9.39502 20.3251 9.39502C21.3681 9.39502 22.2197 10.2466 22.2197 11.2896C22.2197 12.3325 21.372 13.1841 20.3251 13.1841ZM4.70014 7.53955C6.07905 7.53955 7.20014 6.41846 7.20014 5.03955C7.20014 3.66064 6.07905 2.53955 4.70014 2.53955C3.32124 2.53955 2.20014 3.66064 2.20014 5.03955C2.20014 6.41846 3.32124 7.53955 4.70014 7.53955ZM13.4501 8.78955C13.5244 8.78955 13.5947 8.77002 13.6689 8.76611C13.9931 7.91846 14.4697 7.12158 15.0869 6.45361C15.3759 6.14111 15.7861 5.96143 16.2158 5.96143C16.4853 5.96143 16.7509 6.03174 16.9814 6.16846L17.29 6.34814C17.3212 6.32861 17.3525 6.31299 17.3837 6.29346C17.6572 5.72314 17.8212 5.09033 17.8212 4.41846C17.8212 2.00049 15.8642 0.043457 13.4462 0.043457C11.0283 0.043457 9.07514 1.99658 9.07514 4.41455C9.07514 6.83252 11.0322 8.78955 13.4501 8.78955ZM17.5595 16.3872C17.4697 16.3403 17.3798 16.2856 17.2939 16.2349C16.9736 16.4224 16.6962 16.6177 16.2197 16.6177C15.7939 16.6177 15.3837 16.438 15.0908 16.1255C14.3759 15.3521 13.829 14.4106 13.5205 13.4067C13.1025 12.0591 14.4931 11.4653 14.5283 11.4419C14.5244 11.3403 14.5244 11.2388 14.5283 11.1372L14.2197 10.9575C14.0712 10.8716 13.9462 10.7622 13.8369 10.6411C13.708 10.6489 13.583 10.6646 13.4541 10.6646C12.4931 10.6646 11.5947 10.4302 10.7783 10.0396H10.4541C7.96577 10.0396 5.95014 12.0552 5.95014 14.5396V15.6646C5.95014 16.6997 6.78999 17.5396 7.82514 17.5396H17.8017C17.6572 17.3052 17.5595 17.0396 17.5595 16.7466V16.3872ZM7.71186 9.51611C7.25874 9.06689 6.63764 8.78955 5.95014 8.78955H3.45014C2.07124 8.78955 0.950144 9.91064 0.950144 11.2896V12.5396C0.950144 13.231 1.50874 13.7896 2.20014 13.7896H4.77436C5.02046 11.938 6.13764 10.3794 7.71186 9.51611Z" fill="white"/>
</svg>
