<svg xmlns="http://www.w3.org/2000/svg" xmlns:xlink="http://www.w3.org/1999/xlink" viewBox="0 0 165.31 70.7"><defs><style>.cls-1{fill:url(#radial-gradient);}.cls-2{fill:url(#linear-gradient);}.cls-3{fill:url(#linear-gradient-2);}.cls-4{fill:#f7931e;}.cls-5{font-size:12.36px;fill:#fff;font-family:ArialNarrow, Arial;}</style><radialGradient id="radial-gradient" cx="37.42" cy="12.2" r="9.49" gradientTransform="translate(-4.09 -2.36) scale(0.86 0.87)" gradientUnits="userSpaceOnUse"><stop offset="0" stop-color="#fffa21"/><stop offset="1" stop-color="#ff950e"/></radialGradient><linearGradient id="linear-gradient" x1="9.05" y1="48.27" x2="35.27" y2="2.87" gradientUnits="userSpaceOnUse"><stop offset="0" stop-color="#7cb9e8"/><stop offset="1" stop-color="#00308f"/></linearGradient><linearGradient id="linear-gradient-2" x1="47.57" y1="47.61" x2="2.98" y2="47.61" xlink:href="#linear-gradient"/></defs><g id="Layer_2" data-name="Layer 2"><g id="Layer_1-2" data-name="Layer 1"><ellipse class="cls-1" cx="28.06" cy="8.25" rx="8.15" ry="8.25"/><path class="cls-2" d="M4.79,28.72,21.94,15.35a9.36,9.36,0,0,0,12.54-.55A9.63,9.63,0,0,0,35.63,3.07L43,12.54a5.79,5.79,0,0,1,1.42,4.32,5.09,5.09,0,0,1-1.9,2.95C39.83,22,27.73,31.18,10.93,44.07a4.65,4.65,0,0,0-1.8,2.14c-.35,1.1.33,2.11.2,2.19s-1.95-2-8.4-11.11A4.43,4.43,0,0,1,.05,34c.21-1.16,1-1.91,2.37-3.29A20.67,20.67,0,0,1,4.79,28.72Z"/><path class="cls-3" d="M47.56,38.73a5.14,5.14,0,0,1-2,3.23c-2.54,2.19-14.77,11.67-31.65,24.41-.93.82-1.53,1.06-1.76,2.06-.28,1.18.46,2.18.34,2.26s-2-2-8.88-11.38a5.16,5.16,0,0,1-.54-3.5,4.9,4.9,0,0,1,1.69-2.47C8.15,50.81,19.64,42,37.08,28.72a3.5,3.5,0,0,0,1.33-1.78c.46-1.34-.53-2.32-.39-2.41s2.07,2.57,8.38,10.84A4.94,4.94,0,0,1,47.56,38.73Z"/><path class="cls-4" d="M62.83,24.78a14.21,14.21,0,0,1-2.37-.2A10.33,10.33,0,0,1,58.39,24l.37-2.73A13.87,13.87,0,0,0,61,22a9,9,0,0,0,2,.25,3,3,0,0,0,1.66-.38,1.25,1.25,0,0,0,.57-1.1,1.68,1.68,0,0,0-1.18-1.5l-2.07-1a6.6,6.6,0,0,1-2.36-1.85A4,4,0,0,1,58.78,14,3.58,3.58,0,0,1,60,11a5.37,5.37,0,0,1,3.52-1,6.88,6.88,0,0,1,2.52.47,6.42,6.42,0,0,1,2.11,1.34l-1.84,2.12a6,6,0,0,0-1.41-1,3,3,0,0,0-1.37-.36,2.24,2.24,0,0,0-1.38.38,1.3,1.3,0,0,0-.5,1.1,1.44,1.44,0,0,0,.35.9,3.18,3.18,0,0,0,1,.77l1.94,1a7.12,7.12,0,0,1,2.34,1.84,3.59,3.59,0,0,1,.83,2.26,3.48,3.48,0,0,1-1.38,2.95A6.42,6.42,0,0,1,62.83,24.78Z"/><path class="cls-4" d="M75.43,24.78q-4.79,0-4.78-4.81V10.21h2.67V20a2.41,2.41,0,0,0,.52,1.69,2.11,2.11,0,0,0,1.63.56q2.16,0,2.16-2.25V10.21H80.3V20a4.8,4.8,0,0,1-1.24,3.61A5,5,0,0,1,75.43,24.78Z"/><path class="cls-4" d="M82.87,24.58V10.21h2.57V24.58Zm5.47,0L85.81,13.35h-1.1V10.21h2.18l2.53,11.23h.68v3.14Zm1.45,0V10.21h2.57V24.58Z"/><path class="cls-4" d="M100.79,24.78a6.27,6.27,0,0,1-5-1.85q-1.66-1.84-1.66-5.55a7.92,7.92,0,0,1,1.71-5.44A6.1,6.1,0,0,1,100.71,10a6.76,6.76,0,0,1,2.71.49,4.07,4.07,0,0,1,1.77,1.39l-1.68,1.94a3.27,3.27,0,0,0-1.17-.94,3.35,3.35,0,0,0-1.51-.34A3.46,3.46,0,0,0,98,13.78a5.42,5.42,0,0,0-1,3.5A5.72,5.72,0,0,0,98,21a3.65,3.65,0,0,0,3,1.24,7.21,7.21,0,0,0,1.7-.18l1.2-.32,1,2.45c-.3.08-.82.21-1.56.37A12.87,12.87,0,0,1,100.79,24.78Zm-.93-5.18V17.14h5V19.6Zm2.38,4.58v-7h2.65v7Z"/><path class="cls-4" d="M107.07,24.58V10.21h2.68V24.58Zm2.53-5.26V16.86h2.58a1.88,1.88,0,0,0,1.45-.55,2.14,2.14,0,0,0,.52-1.54,2.14,2.14,0,0,0-.52-1.55,1.88,1.88,0,0,0-1.45-.55h-2.54l-.24-2.46h2.78a5.19,5.19,0,0,1,3.59,1.14A4.08,4.08,0,0,1,117,14.56a4.71,4.71,0,0,1-1.26,3.51,4.91,4.91,0,0,1-3.59,1.25Zm4.77,5.26-2.71-6.76h2.81l3.09,6.76Z"/><path class="cls-4" d="M119.5,12.61v-2.4h9.09v2.4Zm0,12V22.17h9.09v2.41Zm3.2,0V10.21h2.67V24.58Z"/><path class="cls-4" d="M131.36,24.58V10.21H134V24.58Zm2.53,0V22H135a3.68,3.68,0,0,0,3-1.13,4.86,4.86,0,0,0,1-3.3A5.63,5.63,0,0,0,138,14a3.55,3.55,0,0,0-3-1.23h-1.08l-.24-2.55H135q6.75,0,6.75,7.39,0,7-6.75,7Z"/><path class="cls-4" d="M62.83,43a13.22,13.22,0,0,1-2.37-.21,10.34,10.34,0,0,1-2.07-.58l.37-2.73a12.87,12.87,0,0,0,2.21.71,9,9,0,0,0,2,.26A3,3,0,0,0,64.66,40a1.24,1.24,0,0,0,.57-1.1,1.68,1.68,0,0,0-1.18-1.5l-2.07-1a6.6,6.6,0,0,1-2.36-1.85,4,4,0,0,1-.84-2.44A3.56,3.56,0,0,1,60,29.23a5.37,5.37,0,0,1,3.52-1,6.88,6.88,0,0,1,2.52.47A6.45,6.45,0,0,1,68.17,30l-1.84,2.11a6,6,0,0,0-1.41-1,3,3,0,0,0-1.37-.36,2.24,2.24,0,0,0-1.38.38,1.31,1.31,0,0,0-.5,1.1,1.4,1.4,0,0,0,.35.9,3,3,0,0,0,1,.77l1.94,1a7.12,7.12,0,0,1,2.34,1.84A3.63,3.63,0,0,1,68.13,39a3.46,3.46,0,0,1-1.38,3A6.42,6.42,0,0,1,62.83,43Z"/><path class="cls-4" d="M75.47,43Q70,43,70,35.68q0-7.48,5.47-7.49T81,35.68Q81,43,75.47,43Zm0-2.55q2.67,0,2.67-4.74,0-4.93-2.67-4.94T72.8,35.68Q72.8,40.42,75.47,40.42Z"/><path class="cls-4" d="M83,42.77V28.4h2.67V42.77Zm0,0V40.31h9.86v2.46Z"/><path class="cls-4" d="M99.72,43q-4.78,0-4.79-4.82V28.4H97.6v9.75a2.46,2.46,0,0,0,.52,1.69,2.13,2.13,0,0,0,1.64.57c1.44,0,2.15-.75,2.15-2.26V28.4h2.68v9.75a4.83,4.83,0,0,1-1.24,3.61A5,5,0,0,1,99.72,43Z"/><path class="cls-4" d="M106.47,30.86V28.4h10.87v2.46Zm4.1,11.91V28.4h2.67V42.77Z"/><path class="cls-4" d="M119.5,30.79V28.4h9.09v2.39Zm0,12V40.36h9.09v2.41Zm3.2,0V28.4h2.67V42.77Z"/><path class="cls-4" d="M136.19,43q-5.48,0-5.48-7.29,0-7.48,5.48-7.49t5.47,7.49Q141.66,43,136.19,43Zm0-2.55q2.67,0,2.67-4.74,0-4.93-2.67-4.94t-2.67,4.94Q133.52,40.42,136.19,40.42Z"/><path class="cls-4" d="M143.58,42.77V28.4h2.57V42.77Zm5.48,0-2.53-11.24h-1.1V28.4h2.17l2.53,11.23h.68v3.14Zm1.45,0V28.4h2.57V42.77Z"/><path class="cls-4" d="M160,43a13.25,13.25,0,0,1-2.38-.21,10.34,10.34,0,0,1-2.07-.58l.37-2.73a12.87,12.87,0,0,0,2.21.71,9,9,0,0,0,2,.26A3,3,0,0,0,161.8,40a1.24,1.24,0,0,0,.57-1.1,1.68,1.68,0,0,0-1.18-1.5l-2.06-1a6.56,6.56,0,0,1-2.37-1.85,4,4,0,0,1-.84-2.44,3.56,3.56,0,0,1,1.24-2.91,5.37,5.37,0,0,1,3.52-1,6.84,6.84,0,0,1,2.52.47A6.35,6.35,0,0,1,165.31,30l-1.84,2.11a6,6,0,0,0-1.41-1,3,3,0,0,0-1.36-.36,2.25,2.25,0,0,0-1.39.38,1.31,1.31,0,0,0-.5,1.1,1.4,1.4,0,0,0,.35.9,3.15,3.15,0,0,0,1,.77l1.94,1a7.12,7.12,0,0,1,2.34,1.84,3.63,3.63,0,0,1,.83,2.26,3.46,3.46,0,0,1-1.38,3A6.39,6.39,0,0,1,160,43Z"/><text class="cls-5" transform="translate(57.22 54.73) scale(1.26 1)">Nigeria Limited</text></g></g></svg>