<svg width="36" height="36" viewBox="0 0 36 36" fill="none" xmlns="http://www.w3.org/2000/svg">
<path d="M15.8243 3.79783C17.0811 2.73796 18.9189 2.73796 20.1757 3.79785L30.3008 12.336C31.0611 12.9773 31.5 13.9213 31.5 14.9161V28.8808C31.5 30.3306 30.3247 31.5058 28.875 31.5058H23.625C22.1753 31.5058 21 30.3306 21 28.8808V21.3702C21 21.1632 20.8321 20.9952 20.625 20.9952H15.375C15.1679 20.9952 15 21.1632 15 21.3702V28.8808C15 30.3306 13.8247 31.5058 12.375 31.5058H7.125C5.67525 31.5058 4.5 30.3306 4.5 28.8808V14.9161C4.5 13.9213 4.93883 12.9773 5.69928 12.336L15.8243 3.79783ZM18.7252 5.5179C18.3063 5.1646 17.6937 5.1646 17.2748 5.5179L7.14977 14.0561C6.89628 14.2698 6.75 14.5845 6.75 14.9161V28.8808C6.75 29.088 6.91789 29.2558 7.125 29.2558H12.375C12.5821 29.2558 12.75 29.088 12.75 28.8808V21.3702C12.75 19.9204 13.9253 18.7452 15.375 18.7452H20.625C22.0747 18.7452 23.25 19.9204 23.25 21.3702V28.8808C23.25 29.088 23.4179 29.2558 23.625 29.2558H28.875C29.0821 29.2558 29.25 29.088 29.25 28.8808V14.9161C29.25 14.5845 29.1037 14.2698 28.8502 14.0561L18.7252 5.5179Z" fill="white"/>
</svg>
