<svg width="25" height="20" viewBox="0 0 25 20" fill="none" xmlns="http://www.w3.org/2000/svg">
<path d="M16.8743 17.5004L15.0005 17.5023V16.25H10.0005V17.5082L8.1263 17.5102C7.78177 17.5105 7.50247 17.7898 7.50208 18.1348L7.50013 19.3742C7.49974 19.7199 7.78021 20.0004 8.12591 20L16.8743 19.9898C17.2189 19.9895 17.4982 19.7102 17.4986 19.3656L17.5001 18.1262C17.5005 17.7805 17.2201 17.5 16.8743 17.5004ZM22.8595 1.04453C22.7572 0.441797 22.2263 0 21.604 0H3.39583C2.77357 0 2.24271 0.441797 2.14036 1.04453C-0.129558 14.4203 0.00169209 13.5969 0.00130147 13.75C0.000129595 14.4266 0.559505 15 1.27474 15H23.7255C24.4376 15 24.9954 14.4312 24.9986 13.7582C24.9993 13.5988 25.1294 14.4203 22.8595 1.04453ZM10.1497 2.5H14.8501L15.2318 6.25H9.7681L10.1497 2.5ZM7.21341 12.5H2.77708L3.51966 8.125H7.65911L7.21341 12.5ZM7.84974 6.25H3.83763L4.47396 2.5H8.23138L7.84974 6.25ZM9.13177 12.5L9.57708 8.125H15.4228L15.8681 12.5H9.13177ZM16.7685 2.5H20.5259L21.1622 6.25H17.1501L16.7685 2.5ZM17.7865 12.5L17.3411 8.125H21.4806L22.2232 12.5H17.7865Z" fill="white"/>
</svg>
