<svg xmlns="http://www.w3.org/2000/svg" xmlns:xlink="http://www.w3.org/1999/xlink" viewBox="0 0 1229.28 525.88"><defs><style>.cls-1,.cls-2,.cls-3{stroke:#fff;stroke-miterlimit:10;stroke-width:0.5px;}.cls-1{fill:url(#radial-gradient);}.cls-2{fill:url(#linear-gradient);}.cls-3{fill:url(#linear-gradient-2);}</style><radialGradient id="radial-gradient" cx="217.38" cy="77.29" r="70.53" gradientTransform="translate(22.01 -4.83) scale(0.86 0.86)" gradientUnits="userSpaceOnUse"><stop offset="0" stop-color="#fffa21"/><stop offset="1" stop-color="#ff950e"/></radialGradient><linearGradient id="linear-gradient" x1="67.53" y1="358.99" x2="262.35" y2="21.56" gradientUnits="userSpaceOnUse"><stop offset="0" stop-color="#7cb9e8"/><stop offset="1" stop-color="#00308f"/></linearGradient><linearGradient id="linear-gradient-2" x1="353.79" y1="354.07" x2="22.39" y2="354.07" xlink:href="#linear-gradient"/></defs><g id="Layer_2" data-name="Layer 2"><g id="Layer_1-2" data-name="Layer 1"><ellipse class="cls-1" cx="208.78" cy="61.58" rx="60.6" ry="61.33"/><path class="cls-2" d="M35.87,213.7l127.42-99.38c28.28,23,68.9,20.64,93.17-4.08C278.59,87.71,282.51,51.29,265,23.1l54.39,70.33c5.55,7.18,12.8,19.1,10.58,32.1-2,11.45-10.41,18.8-14.1,21.92C296.28,164,206.35,232,81.45,327.79c-4.78,3.12-11.31,9.41-13.35,15.86-2.59,8.22,2.48,15.66,1.51,16.31-1.44,1-14.48-14.62-62.44-82.56C-1,265.32.09,255.88.62,252.94c1.54-8.66,7.22-14.24,17.62-24.46A146,146,0,0,1,35.87,213.7Z"/><path class="cls-3" d="M353.66,288.11c-1.16,11.93-10.11,20.07-14.61,24-18.88,16.26-109.79,86.72-235.18,181.4-6.94,6.13-11.37,7.92-13.1,15.3-2.07,8.81,3.41,16.2,2.52,16.82-1.32.93-14.78-14.75-66-84.6-3.37-6.76-6.51-16.19-4-26s10.19-16.54,12.58-18.35c25-18.79,110.36-84.17,239.91-182.94,3.8-2.23,7.9-7.44,9.89-13.26,3.41-9.95-3.89-17.23-2.9-17.91,1.31-.87,15.41,19.14,62.33,80.59C349.38,268.75,354.68,277.71,353.66,288.11Z"/><path d="M387.64,254.53l9-16.15a4.46,4.46,0,0,1,6-1.7A69.6,69.6,0,0,0,417,242a84.17,84.17,0,0,0,20.68,2.62q14.24,0,14.23-7.66c0-2.63-1.31-4.59-3.94-5.91s-7-2.19-13.13-2.63q-20.58-1.08-32.72-10.28-11.58-8.76-12.13-22.67a32.21,32.21,0,0,1,13-27q13.15-9.61,35.59-9.62a93.72,93.72,0,0,1,24.19,3.06,71.21,71.21,0,0,1,16,6.28,4.22,4.22,0,0,1,1.7,5.82l-9.3,16a4.2,4.2,0,0,1-5.49,1.6q-11.1-5.19-25.61-5.19-16.64,0-16.63,7.88,0,3.28,3.39,5t11.49,2.63q23.2,1.76,35.35,10.51t12.15,24.51q0,16.63-13.35,26.16t-37,9.52q-26.36,0-46.4-12.19A4.41,4.41,0,0,1,387.64,254.53Z"/><path d="M612.81,166.53v98.35a4.89,4.89,0,0,1-4.89,4.89H587.15a4.88,4.88,0,0,1-4.82-4l-1.48-8.43a40.34,40.34,0,0,1-15,11.05,48.39,48.39,0,0,1-19.37,3.83q-19.92,0-31.74-13.13t-11.82-36.34V166.53a4.89,4.89,0,0,1,4.89-4.89h24.59a4.89,4.89,0,0,1,4.89,4.89v54.21q0,10.51,5.14,16.42t14.12,5.91q9.84,0,15.87-6.89t6-17.84V166.53a4.89,4.89,0,0,1,4.89-4.89h24.58A4.89,4.89,0,0,1,612.81,166.53Z"/><path d="M737.47,172.37q11.92,13.13,11.92,36.34v57a4,4,0,0,1-4,4H719.06a4,4,0,0,1-4-4V210.67q0-10.5-5.25-16.41t-14.45-5.91q-10.07,0-16.2,6.78T673,212.86v52.89a4,4,0,0,1-4,4H642.67a4,4,0,0,1-4-4V165.67a4,4,0,0,1,4-4H665a4,4,0,0,1,4,3.35l1.62,9.35a43.51,43.51,0,0,1,15.21-11.16,47.65,47.65,0,0,1,19.59-3.94Q725.53,159.24,737.47,172.37Z"/><path d="M984.7,162a37.36,37.36,0,0,1,10.17,5.62,4.31,4.31,0,0,1,.94,5.52l-10.48,18.25a4.36,4.36,0,0,1-5.75,1.74,34.87,34.87,0,0,0-5-2.12,26,26,0,0,0-8.32-1.32q-10.95,0-17.29,7t-6.35,20.57v48.14a4.39,4.39,0,0,1-4.39,4.39H912.7a4.38,4.38,0,0,1-4.39-4.39V166a4.39,4.39,0,0,1,4.39-4.4h22A4.4,4.4,0,0,1,939,165.2l1.94,10q10.5-16,28.89-16A43,43,0,0,1,984.7,162Z"/><path d="M1012,145.67a18.89,18.89,0,0,1,.1-26.93q5.7-5.25,14.45-5.25t14.45,5.25a18.91,18.91,0,0,1,.11,26.93q-5.58,5.25-14.56,5.25T1012,145.67Zm1.59,16h25.7a4.33,4.33,0,0,1,4.33,4.34v99.46a4.33,4.33,0,0,1-4.33,4.33h-25.7a4.33,4.33,0,0,1-4.33-4.33V166A4.33,4.33,0,0,1,1013.54,161.64Z"/><path d="M1182.78,118.87V267.46a2.3,2.3,0,0,1-2.31,2.31H1155a2.31,2.31,0,0,1-2.28-1.92l-1.11-6.57a2.33,2.33,0,0,0-3.92-1.25Q1134.58,272,1114.93,272a50.6,50.6,0,0,1-26.81-7.11,48.76,48.76,0,0,1-18.28-19.92q-6.57-12.81-6.57-29.22t6.57-29.22a48.76,48.76,0,0,1,18.28-19.92,50.6,50.6,0,0,1,26.81-7.11q17.34,0,29.87,9.45a2.29,2.29,0,0,0,3.62-1.9V118.87a2.32,2.32,0,0,1,2.31-2.32h29.74A2.31,2.31,0,0,1,1182.78,118.87Zm-41.15,116.65q7.23-7.56,7.23-19.81t-7.23-19.81q-7.22-7.54-18.6-7.55t-18.5,7.66q-7.11,7.67-7.11,19.7t7.11,19.7q7.11,7.67,18.5,7.66T1141.63,235.52Z"/><path d="M845.49,231.69q7-7,7-18.61t-6.89-18.49q-6.9-6.9-18.5-6.9-11.39,0-18.39,6.9t-7,18.49q0,11.38,7,18.5t18.39,7.11Q838.47,238.69,845.49,231.69Zm-.67,44.08c-.44-4.49-9.81-8.74-17.5-8-12.56,1.26-22.44-2.26-31.41-6.78a49.41,49.41,0,0,1-20.8-19.15q-7.33-12.37-7.33-28.79A53,53,0,0,1,775.33,185a51.68,51.68,0,0,1,21-19.26q13.46-6.88,30.75-6.89a57.74,57.74,0,0,1,21.46,3.93,4.42,4.42,0,0,0,5.14-1.27l8-9.89a4.44,4.44,0,0,1,6.06-.81l17.83,12.87a4.45,4.45,0,0,1,.78,6.5l-8.91,10.38a4.51,4.51,0,0,0-.07,5.67,43.73,43.73,0,0,1,8.62,26.9,44.18,44.18,0,0,1-5.8,22.22,46.29,46.29,0,0,1-11.37,13.25,4.34,4.34,0,0,0-.12,6.66c4.83,4.2,8.4,10.89,8.57,16.38"/><path d="M391.19,394l8.65-15.57a4.77,4.77,0,0,1,6.38-1.82,70,70,0,0,0,14.18,5.17,84.17,84.17,0,0,0,20.68,2.62q14.24,0,14.23-7.66c0-2.63-1.32-4.59-3.94-5.91s-7-2.19-13.13-2.63q-20.58-1.08-32.73-10.28-11.56-8.76-12.12-22.66a32.21,32.21,0,0,1,13-27q13.15-9.62,35.6-9.62a93.59,93.59,0,0,1,24.18,3.06,72.31,72.31,0,0,1,15.48,6,4.82,4.82,0,0,1,1.93,6.69l-8.67,14.94a4.88,4.88,0,0,1-6.32,1.86,60.27,60.27,0,0,0-25.07-4.94q-16.64,0-16.64,7.88,0,3.29,3.39,5t11.5,2.63q23.19,1.76,35.35,10.51t12.14,24.51q0,16.64-13.35,26.16t-37,9.52q-26.13,0-46.08-12A4.79,4.79,0,0,1,391.19,394Z"/><path d="M527.87,404.84A50.17,50.17,0,0,1,507.19,385Q500,372.34,500,355.48t7.23-29.55a50.17,50.17,0,0,1,20.68-19.81Q541.33,299,559.28,299t31.51,7.11a50,50,0,0,1,20.8,19.81q7.23,12.69,7.23,29.55T611.59,385a50,50,0,0,1-20.8,19.81Q577.23,412,559.28,412T527.87,404.84Zm49.8-29.66q7-7.67,7-19.7t-7-19.7q-7-7.66-18.39-7.66-11.16,0-18.17,7.66t-7,19.7q0,12,7,19.7t18.17,7.66Q570.67,382.84,577.67,375.18Z"/><path d="M672.88,259.35V406.52a3,3,0,0,1-3,3H641.54a3,3,0,0,1-3-3V259.35"/><path d="M807.27,305.87v99.22a4.45,4.45,0,0,1-4.45,4.45H781.24a4.44,4.44,0,0,1-4.38-3.68l-1.55-8.79a40.34,40.34,0,0,1-15,11.05A48.39,48.39,0,0,1,741,412q-19.92,0-31.74-13.13t-11.82-36.34V305.87a4.46,4.46,0,0,1,4.46-4.46H727.3a4.46,4.46,0,0,1,4.45,4.46v54.64q0,10.51,5.15,16.42T751,382.84q9.86,0,15.88-6.89t6-17.84V305.87a4.46,4.46,0,0,1,4.45-4.46h25.46A4.46,4.46,0,0,1,807.27,305.87Z"/><path d="M877.25,271.41l.49,29.44a.58.58,0,0,0,.58.56H904.1a.58.58,0,0,1,.58.58V328.2a.57.57,0,0,1-.58.57H878.33a.58.58,0,0,0-.58.58v40.36q0,6.56,3.29,9.74c2.19,2.11,5.17,3.17,9,3.17a27.3,27.3,0,0,0,11.89-2.78.55.55,0,0,1,.78.33l7.76,24.73a.61.61,0,0,1-.31.71,63.44,63.44,0,0,1-28.21,6.12q-17.74,0-28-10t-10.29-32.06V329.35a.58.58,0,0,0-.58-.58H825.8a.57.57,0,0,1-.58-.57V302a.58.58,0,0,1,.58-.58h17.25a.57.57,0,0,0,.58-.55l.48-28.32"/><path d="M930.58,301.41h25a4.68,4.68,0,0,1,4.67,4.68v98.78a4.67,4.67,0,0,1-4.67,4.67h-25a4.67,4.67,0,0,1-4.67-4.67V306.09A4.68,4.68,0,0,1,930.58,301.41Z"/><path d="M1007.88,404.84A50.19,50.19,0,0,1,987.19,385Q980,372.34,980,355.48t7.22-29.55a50.19,50.19,0,0,1,20.69-19.81q13.46-7.11,31.41-7.11t31.51,7.11a50.06,50.06,0,0,1,20.8,19.81q7.22,12.69,7.22,29.55T1091.6,385a50.06,50.06,0,0,1-20.8,19.81q-13.58,7.11-31.51,7.11T1007.88,404.84Zm49.8-29.66q7-7.67,7-19.7t-7-19.7q-7-7.66-18.39-7.66-11.16,0-18.17,7.66t-7,19.7q0,12,7,19.7t18.17,7.66Q1050.66,382.84,1057.68,375.18Z"/><path d="M1217.35,312.14q11.93,13.14,11.93,36.34v57.66a3.4,3.4,0,0,1-3.4,3.4h-27.56a3.4,3.4,0,0,1-3.4-3.4v-55.7q0-10.5-5.26-16.41t-14.44-5.91q-10.08,0-16.2,6.78t-6.13,17.73v53.51a3.4,3.4,0,0,1-3.4,3.4h-27.56a3.41,3.41,0,0,1-3.41-3.4V304.82a3.41,3.41,0,0,1,3.41-3.41h23.49a3.42,3.42,0,0,1,3.36,2.83l1.7,9.87A43.51,43.51,0,0,1,1165.69,303a47.65,47.65,0,0,1,19.59-3.94Q1205.43,299,1217.35,312.14Z"/></g></g></svg>